<?xml version="1.0" encoding="utf-8"?>
<!DOCTYPE svg PUBLIC "-//W3C//DTD SVG 1.1//EN" "http://www.w3.org/Graphics/SVG/1.1/DTD/svg11.dtd">
<svg version="1.1" xmlns="http://www.w3.org/2000/svg" width="210" height="30" viewBox="0 0 210 30" enable-background="new 0 0 210 30">
 <g opacity="0.5">
  <g fill="#0f9ce6">
   <g>
    <rect x="115" y="10" fill="#0f9ce6" width="4" height="16"/>
    <path d="M145,4h-16c-2.21,0-4,1.79-4,4v14c0,2.21,1.79,4,4,4h16c2.21,0,4-1.79,4-4V8C149,5.79,147.21,4,145,4z
				 M145,21c0,0.55-0.45,1-1,1h-14c-0.55,0-1-0.45-1-1V9c0-0.55,0.45-1,1-1h14c0.55,0,1,0.45,1,1V21z"/>
    <polygon points="172,4 152,4 152,8 160,8 160,20 164,20 164,8 172,8"/>
   </g>
   <g>
    <path d="M77,4h4v22h-4V10l-9,10l-9-10v16h-4V4h4l9,10L77,4z"/>
    <path d="M24,4H10C7.65,4,6,5.65,6,8v5c0,2.35,1.65,4.02,4,4.02C10,17,19.8,17,23,17c0.55,0,1,0.45,1,1v3
				c0,0.55-0.45,1-1,1H11c-0.55,0-1-0.45-1-1v-1H6v2c0,2.35,1.65,4,4,4h14c2.32,0,4-1.65,4-4v-5c0-2.35-1.92-4-4.24-4H11
				c-0.55,0-1-0.45-1-1V9c0-0.55,0.45-1,1-1h12c0.55,0,1,0.45,1,1v1h4V8C28,5.65,26.32,4,24,4z"/>
    <polygon points="29,4 39,18 39,26 43,26 43,18 53,4 48,4 41,13.5 34,4"/>
   </g>
  </g>
  <g fill="#66c4f5">
   <path d="M201,17V4h-5l-14,13v5.03L196,22v4h5v-4h4v-5H201z M196,17h-7l7-6V17z"/>
   <path d="M106.83,13.09c0.1-0.35,0.17-0.71,0.17-1.09V8c0-2.21-1.79-4-4-4H86v22h20c2.21,0,4-1.79,4-4v-5
			C110,15.08,108.64,13.47,106.83,13.09z M90,12V9c0-0.55,0.45-1,1-1h11c0.55,0,1,0.45,1,1v3c0,0.55-0.45,1-1,1H91
			C90.45,13,90,12.55,90,12z M106,21c0,0.55-0.45,1-1,1H91c-0.55,0-1-0.45-1-1v-3c0-0.55,0.45-1,1-1h14c0.55,0,1,0.45,1,1V21z"/>
   <rect x="113" y="4" width="8" height="4"/>
   <rect x="139" y="10" width="4" height="8"/>
   <rect x="158" y="22" width="8" height="4"/>
  </g>
 </g>
</svg>
