<svg xmlns="http://www.w3.org/2000/svg" xmlns:xlink="http://www.w3.org/1999/xlink" width="210" zoomAndPan="magnify" viewBox="0 0 157.5 30.000001" height="40" preserveAspectRatio="xMidYMid meet" version="1.0"><defs><g/></defs><g fill="rgb(12.939453%, 37.249756%, 53.329468%)" fill-opacity="1"><g transform="translate(43.729398, 11.193077)"><g><path d="M 3.011719 0 L 5.0625 0 L 5.0625 -7.464844 C 6.636719 -7.464844 7.734375 -6.484375 7.734375 -5.074219 L 7.871094 -5.074219 L 7.871094 -7.597656 L 0.203125 -7.597656 L 0.203125 -5.074219 L 0.339844 -5.074219 C 0.339844 -6.484375 1.4375 -7.464844 3.011719 -7.464844 Z M 3.011719 0 "/></g></g></g><g fill="rgb(12.939453%, 37.249756%, 53.329468%)" fill-opacity="1"><g transform="translate(51.802801, 11.193077)"><g><path d="M 3.351562 0.136719 C 4.804688 0.136719 5.699219 -0.867188 5.984375 -2.183594 L 5.835938 -2.210938 C 5.550781 -1.355469 4.898438 -0.761719 4.136719 -0.761719 C 3.105469 -0.761719 2.359375 -1.722656 2.292969 -3.445312 L 5.820312 -3.445312 C 5.820312 -4.871094 4.804688 -5.683594 3.351562 -5.683594 C 1.695312 -5.683594 0.339844 -4.382812 0.339844 -2.78125 C 0.339844 -1.167969 1.695312 0.136719 3.351562 0.136719 Z M 2.292969 -3.582031 C 2.308594 -4.679688 2.742188 -5.535156 3.269531 -5.535156 C 3.800781 -5.535156 4.003906 -4.679688 4.003906 -3.582031 Z M 2.292969 -3.582031 "/></g></g></g><g fill="rgb(12.939453%, 37.249756%, 53.329468%)" fill-opacity="1"><g transform="translate(58.125844, 11.193077)"><g><path d="M 3.351562 0.136719 C 4.804688 0.136719 5.699219 -0.867188 5.984375 -2.183594 L 5.835938 -2.210938 C 5.550781 -1.355469 4.898438 -0.761719 4.136719 -0.761719 C 3.066406 -0.761719 2.292969 -1.722656 2.292969 -3.582031 C 2.292969 -4.722656 2.605469 -5.535156 3.363281 -5.535156 C 3.894531 -5.535156 4.21875 -5.210938 4.21875 -4.679688 C 4.21875 -4.042969 3.785156 -3.933594 3.785156 -3.933594 C 3.785156 -3.648438 4.179688 -3.257812 4.667969 -3.257812 C 5.292969 -3.257812 5.5625 -3.730469 5.5625 -4.207031 C 5.5625 -5.035156 4.546875 -5.683594 3.269531 -5.683594 C 1.65625 -5.644531 0.339844 -4.355469 0.339844 -2.78125 C 0.339844 -1.167969 1.695312 0.136719 3.351562 0.136719 Z M 3.351562 0.136719 "/></g></g></g><g fill="rgb(12.939453%, 37.249756%, 53.329468%)" fill-opacity="1"><g transform="translate(64.448888, 11.193077)"><g><path d="M 0.679688 0 L 2.660156 0 L 2.660156 -4.273438 C 2.824219 -4.503906 3.203125 -4.898438 3.3125 -4.992188 C 3.8125 -5.425781 4.316406 -5.347656 4.316406 -4.601562 L 4.316406 0 L 6.296875 0 L 6.296875 -4.558594 C 6.296875 -5.167969 5.671875 -5.753906 4.734375 -5.753906 C 3.828125 -5.753906 3.066406 -5.035156 2.660156 -4.503906 L 2.660156 -8.414062 L 0.679688 -8.414062 Z M 0.679688 0 "/></g></g></g><g fill="rgb(12.939453%, 37.249756%, 53.329468%)" fill-opacity="1"><g transform="translate(71.423232, 11.193077)"><g><path d="M 0.679688 0 L 2.726562 0 L 2.726562 -3.800781 L 2.917969 -3.800781 C 4.042969 -3.773438 4.789062 -3.175781 4.789062 -2.144531 L 4.9375 -2.144531 L 4.9375 -5.589844 L 4.789062 -5.589844 C 4.789062 -4.546875 4.042969 -3.949219 2.890625 -3.933594 L 2.726562 -3.933594 L 2.726562 -7.464844 L 3.675781 -7.464844 C 5.25 -7.464844 6.351562 -6.484375 6.351562 -5.074219 L 6.484375 -5.074219 L 6.484375 -7.597656 L 0.679688 -7.597656 Z M 0.679688 0 "/></g></g></g><g fill="rgb(12.939453%, 37.249756%, 53.329468%)" fill-opacity="1"><g transform="translate(78.112629, 11.193077)"><g><path d="M 4.21875 -5.660156 C 3.488281 -5.660156 3 -5.332031 2.660156 -4.761719 L 2.660156 -5.535156 L 0.679688 -5.535156 L 0.679688 0 L 2.660156 0 L 2.660156 -4.492188 C 2.957031 -5.089844 3.390625 -5.453125 3.90625 -5.453125 C 4.300781 -5.453125 4.574219 -5.117188 4.574219 -4.695312 C 4.574219 -4.042969 3.878906 -3.691406 3.878906 -3.691406 C 3.90625 -3.351562 4.234375 -2.890625 4.777344 -2.890625 C 5.578125 -2.890625 5.863281 -3.554688 5.863281 -4.125 C 5.863281 -5.238281 5.035156 -5.660156 4.21875 -5.660156 Z M 4.21875 -5.660156 "/></g></g></g><g fill="rgb(12.939453%, 37.249756%, 53.329468%)" fill-opacity="1"><g transform="translate(84.177857, 11.193077)"><g><path d="M 3.351562 0.136719 C 4.804688 0.136719 5.699219 -0.867188 5.984375 -2.183594 L 5.835938 -2.210938 C 5.550781 -1.355469 4.898438 -0.761719 4.136719 -0.761719 C 3.105469 -0.761719 2.359375 -1.722656 2.292969 -3.445312 L 5.820312 -3.445312 C 5.820312 -4.871094 4.804688 -5.683594 3.351562 -5.683594 C 1.695312 -5.683594 0.339844 -4.382812 0.339844 -2.78125 C 0.339844 -1.167969 1.695312 0.136719 3.351562 0.136719 Z M 2.292969 -3.582031 C 2.308594 -4.679688 2.742188 -5.535156 3.269531 -5.535156 C 3.800781 -5.535156 4.003906 -4.679688 4.003906 -3.582031 Z M 2.292969 -3.582031 "/></g></g></g><g fill="rgb(12.939453%, 37.249756%, 53.329468%)" fill-opacity="1"><g transform="translate(90.5009, 11.193077)"><g><path d="M 1.96875 0.136719 C 2.699219 0.136719 3.445312 -0.421875 3.757812 -0.9375 C 3.828125 -0.324219 4.328125 0.136719 4.964844 0.136719 C 5.671875 0.136719 6.242188 -0.433594 6.242188 -1.140625 L 6.132812 -1.152344 C 6.105469 -0.761719 6.039062 -0.691406 5.941406 -0.691406 C 5.765625 -0.691406 5.726562 -0.910156 5.726562 -1.152344 L 5.726562 -3.40625 C 5.726562 -4.085938 5.441406 -4.613281 4.980469 -4.992188 C 4.449219 -5.425781 3.730469 -5.660156 2.863281 -5.660156 C 1.601562 -5.660156 0.582031 -5.007812 0.582031 -4.179688 C 0.582031 -3.675781 0.894531 -3.160156 1.601562 -3.230469 C 2.035156 -3.269531 2.359375 -3.648438 2.359375 -3.90625 C 2.359375 -3.90625 1.925781 -4.015625 1.925781 -4.652344 C 1.925781 -5.292969 2.359375 -5.507812 2.847656 -5.507812 C 3.351562 -5.507812 3.746094 -5.167969 3.746094 -4.53125 L 3.746094 -3.554688 C 1.859375 -2.660156 0.339844 -2.566406 0.339844 -1.167969 C 0.339844 -0.433594 1.03125 0.136719 1.96875 0.136719 Z M 2.875 -0.636719 C 2.496094 -0.636719 2.226562 -1.03125 2.226562 -1.453125 C 2.226562 -2.414062 2.808594 -2.890625 3.746094 -3.433594 L 3.746094 -1.070312 C 3.515625 -0.785156 3.242188 -0.636719 2.875 -0.636719 Z M 2.875 -0.636719 "/></g></g></g><g fill="rgb(12.939453%, 37.249756%, 53.329468%)" fill-opacity="1"><g transform="translate(97.081747, 11.193077)"><g><path d="M 0.679688 0 L 2.660156 0 L 2.660156 -3.09375 C 2.78125 -3.160156 2.945312 -3.214844 3.105469 -3.214844 C 3.445312 -3.214844 3.71875 -3.09375 3.839844 -2.660156 C 4.207031 -1.382812 4.492188 -0.175781 5.875 0 C 6.824219 0.121094 7.449219 0 7.449219 0 C 7.449219 0 6.90625 -0.503906 6.5 -1.328125 C 5.957031 -2.441406 5.753906 -3.378906 4.722656 -3.675781 C 4.152344 -3.839844 3.40625 -3.648438 2.890625 -3.339844 L 5.320312 -5.535156 L 5.128906 -5.535156 L 2.660156 -3.324219 L 2.660156 -8.414062 L 0.679688 -8.414062 Z M 0.679688 0 "/></g></g></g><g fill="rgb(12.939453%, 37.249756%, 53.329468%)" fill-opacity="1"><g transform="translate(104.734522, 11.193077)"><g><path d="M 3.121094 0.136719 C 4.464844 0.136719 5.890625 -0.570312 5.890625 -1.519531 C 5.890625 -3.011719 2.226562 -3.472656 2.226562 -4.722656 C 2.226562 -5.304688 2.847656 -5.523438 3.285156 -5.523438 C 3.785156 -5.523438 4.191406 -5.25 4.191406 -4.816406 C 4.191406 -4.261719 3.785156 -4.207031 3.785156 -4.207031 C 3.785156 -3.828125 4.207031 -3.472656 4.695312 -3.472656 C 5.074219 -3.472656 5.578125 -3.691406 5.578125 -4.316406 C 5.578125 -5.089844 4.503906 -5.660156 3.257812 -5.660156 C 1.996094 -5.660156 0.554688 -5.25 0.554688 -4.207031 C 0.554688 -2.644531 4.070312 -2.128906 4.070312 -0.785156 C 4.070312 -0.136719 3.445312 0 3.054688 0 C 2.578125 0 2.035156 -0.257812 2.035156 -0.9375 C 2.035156 -1.300781 2.171875 -1.519531 2.457031 -1.519531 C 2.457031 -1.996094 1.925781 -2.429688 1.34375 -2.429688 C 0.828125 -2.429688 0.40625 -2.089844 0.40625 -1.519531 C 0.40625 -0.542969 1.792969 0.136719 3.121094 0.136719 Z M 3.121094 0.136719 "/></g></g></g><g fill="rgb(12.939453%, 37.249756%, 53.329468%)" fill-opacity="1"><g transform="translate(111.020012, 11.193077)"><g/></g></g><g fill="rgb(12.939453%, 37.249756%, 53.329468%)" fill-opacity="1"><g transform="translate(30.25285, 24.669624)"><g><path d="M 0.679688 0 L 2.726562 0 L 2.726562 -3.773438 L 5.46875 -3.773438 L 5.46875 0 L 7.515625 0 L 7.515625 -7.597656 L 5.46875 -7.597656 L 5.46875 -3.90625 L 2.726562 -3.90625 L 2.726562 -7.597656 L 0.679688 -7.597656 Z M 0.679688 0 "/></g></g></g><g fill="rgb(12.939453%, 37.249756%, 53.329468%)" fill-opacity="1"><g transform="translate(38.448375, 24.669624)"><g><path d="M 3.339844 0.136719 C 4.992188 0.136719 6.335938 -1.152344 6.335938 -2.769531 C 6.335938 -4.371094 4.992188 -5.660156 3.339844 -5.660156 C 1.683594 -5.660156 0.339844 -4.371094 0.339844 -2.769531 C 0.339844 -1.152344 1.683594 0.136719 3.339844 0.136719 Z M 3.339844 0 C 2.589844 0 2.320312 -1.195312 2.320312 -2.769531 C 2.320312 -4.34375 2.589844 -5.535156 3.339844 -5.535156 C 4.042969 -5.535156 4.355469 -4.34375 4.355469 -2.769531 C 4.355469 -1.195312 4.097656 0 3.339844 0 Z M 3.339844 0 "/></g></g></g><g fill="rgb(12.939453%, 37.249756%, 53.329468%)" fill-opacity="1"><g transform="translate(45.1242, 24.669624)"><g><path d="M 0.679688 0 L 2.660156 0 L 2.660156 -4.273438 C 2.824219 -4.503906 3.203125 -4.898438 3.3125 -4.992188 C 3.8125 -5.425781 4.316406 -5.347656 4.316406 -4.601562 L 4.316406 0 L 6.296875 0 L 6.296875 -4.476562 C 6.472656 -4.695312 6.703125 -4.925781 6.785156 -4.992188 C 7.285156 -5.425781 7.789062 -5.347656 7.789062 -4.601562 L 7.789062 0 L 9.769531 0 L 9.769531 -4.558594 C 9.769531 -5.167969 9.144531 -5.753906 8.210938 -5.753906 C 7.394531 -5.753906 6.714844 -5.183594 6.28125 -4.679688 C 6.199219 -5.25 5.605469 -5.753906 4.734375 -5.753906 C 3.828125 -5.753906 3.066406 -5.035156 2.660156 -4.503906 L 2.660156 -5.535156 L 0.679688 -5.535156 Z M 0.679688 0 "/></g></g></g><g fill="rgb(12.939453%, 37.249756%, 53.329468%)" fill-opacity="1"><g transform="translate(55.572143, 24.669624)"><g><path d="M 3.351562 0.136719 C 4.804688 0.136719 5.699219 -0.867188 5.984375 -2.183594 L 5.835938 -2.210938 C 5.550781 -1.355469 4.898438 -0.761719 4.136719 -0.761719 C 3.105469 -0.761719 2.359375 -1.722656 2.292969 -3.445312 L 5.820312 -3.445312 C 5.820312 -4.871094 4.804688 -5.683594 3.351562 -5.683594 C 1.695312 -5.683594 0.339844 -4.382812 0.339844 -2.78125 C 0.339844 -1.167969 1.695312 0.136719 3.351562 0.136719 Z M 2.292969 -3.582031 C 2.308594 -4.679688 2.742188 -5.535156 3.269531 -5.535156 C 3.800781 -5.535156 4.003906 -4.679688 4.003906 -3.582031 Z M 2.292969 -3.582031 "/></g></g></g><g fill="rgb(12.939453%, 37.249756%, 53.329468%)" fill-opacity="1"><g transform="translate(61.895187, 24.669624)"><g/></g></g><g fill="rgb(12.939453%, 37.249756%, 53.329468%)" fill-opacity="1"><g transform="translate(64.64964, 24.669624)"><g><path d="M 0.203125 0 L 0.351562 0 L 1.382812 -2.28125 L 4.273438 -2.28125 L 5.304688 0 L 7.558594 0 L 3.675781 -7.707031 Z M 1.453125 -2.414062 L 2.835938 -5.453125 L 4.21875 -2.414062 Z M 1.453125 -2.414062 "/></g></g></g><g fill="rgb(12.939453%, 37.249756%, 53.329468%)" fill-opacity="1"><g transform="translate(72.410965, 24.669624)"><g><path d="M 2.238281 0.136719 C 3.148438 0.136719 3.90625 -0.582031 4.316406 -1.113281 L 4.316406 -1.085938 C 4.316406 -0.40625 4.84375 0.136719 5.535156 0.136719 C 6.242188 0.136719 6.8125 -0.433594 6.8125 -1.140625 L 6.703125 -1.152344 C 6.675781 -0.761719 6.609375 -0.691406 6.511719 -0.691406 C 6.335938 -0.691406 6.296875 -0.910156 6.296875 -1.152344 L 6.296875 -5.535156 L 4.316406 -5.535156 L 4.316406 -1.34375 C 4.152344 -1.113281 3.773438 -0.71875 3.664062 -0.625 C 3.160156 -0.191406 2.660156 -0.269531 2.660156 -1.019531 L 2.660156 -5.535156 L 0.679688 -5.535156 L 0.679688 -1.058594 C 0.679688 -0.449219 1.300781 0.136719 2.238281 0.136719 Z M 2.238281 0.136719 "/></g></g></g><g fill="rgb(12.939453%, 37.249756%, 53.329468%)" fill-opacity="1"><g transform="translate(79.561693, 24.669624)"><g><path d="M 3.082031 -5.402344 L 3.082031 -5.535156 L 2.566406 -5.535156 L 2.566406 -7.464844 L 2.429688 -7.464844 C 2.429688 -6.335938 1.777344 -5.5625 0.691406 -5.535156 L 0 -5.535156 L 0 -5.402344 L 0.582031 -5.402344 L 0.582031 -1.085938 C 0.582031 -0.40625 1.113281 0.136719 1.804688 0.136719 C 2.511719 0.136719 3.082031 -0.433594 3.082031 -1.140625 L 2.972656 -1.152344 C 2.945312 -0.761719 2.875 -0.691406 2.78125 -0.691406 C 2.605469 -0.691406 2.566406 -0.910156 2.566406 -1.152344 L 2.566406 -5.402344 Z M 3.082031 -5.402344 "/></g></g></g><g fill="rgb(12.939453%, 37.249756%, 53.329468%)" fill-opacity="1"><g transform="translate(82.981018, 24.669624)"><g><path d="M 3.339844 0.136719 C 4.992188 0.136719 6.335938 -1.152344 6.335938 -2.769531 C 6.335938 -4.371094 4.992188 -5.660156 3.339844 -5.660156 C 1.683594 -5.660156 0.339844 -4.371094 0.339844 -2.769531 C 0.339844 -1.152344 1.683594 0.136719 3.339844 0.136719 Z M 3.339844 0 C 2.589844 0 2.320312 -1.195312 2.320312 -2.769531 C 2.320312 -4.34375 2.589844 -5.535156 3.339844 -5.535156 C 4.042969 -5.535156 4.355469 -4.34375 4.355469 -2.769531 C 4.355469 -1.195312 4.097656 0 3.339844 0 Z M 3.339844 0 "/></g></g></g><g fill="rgb(12.939453%, 37.249756%, 53.329468%)" fill-opacity="1"><g transform="translate(89.656843, 24.669624)"><g><path d="M 0.679688 0 L 2.660156 0 L 2.660156 -4.273438 C 2.824219 -4.503906 3.203125 -4.898438 3.3125 -4.992188 C 3.8125 -5.425781 4.316406 -5.347656 4.316406 -4.601562 L 4.316406 0 L 6.296875 0 L 6.296875 -4.476562 C 6.472656 -4.695312 6.703125 -4.925781 6.785156 -4.992188 C 7.285156 -5.425781 7.789062 -5.347656 7.789062 -4.601562 L 7.789062 0 L 9.769531 0 L 9.769531 -4.558594 C 9.769531 -5.167969 9.144531 -5.753906 8.210938 -5.753906 C 7.394531 -5.753906 6.714844 -5.183594 6.28125 -4.679688 C 6.199219 -5.25 5.605469 -5.753906 4.734375 -5.753906 C 3.828125 -5.753906 3.066406 -5.035156 2.660156 -4.503906 L 2.660156 -5.535156 L 0.679688 -5.535156 Z M 0.679688 0 "/></g></g></g><g fill="rgb(12.939453%, 37.249756%, 53.329468%)" fill-opacity="1"><g transform="translate(100.104786, 24.669624)"><g><path d="M 1.96875 0.136719 C 2.699219 0.136719 3.445312 -0.421875 3.757812 -0.9375 C 3.828125 -0.324219 4.328125 0.136719 4.964844 0.136719 C 5.671875 0.136719 6.242188 -0.433594 6.242188 -1.140625 L 6.132812 -1.152344 C 6.105469 -0.761719 6.039062 -0.691406 5.941406 -0.691406 C 5.765625 -0.691406 5.726562 -0.910156 5.726562 -1.152344 L 5.726562 -3.40625 C 5.726562 -4.085938 5.441406 -4.613281 4.980469 -4.992188 C 4.449219 -5.425781 3.730469 -5.660156 2.863281 -5.660156 C 1.601562 -5.660156 0.582031 -5.007812 0.582031 -4.179688 C 0.582031 -3.675781 0.894531 -3.160156 1.601562 -3.230469 C 2.035156 -3.269531 2.359375 -3.648438 2.359375 -3.90625 C 2.359375 -3.90625 1.925781 -4.015625 1.925781 -4.652344 C 1.925781 -5.292969 2.359375 -5.507812 2.847656 -5.507812 C 3.351562 -5.507812 3.746094 -5.167969 3.746094 -4.53125 L 3.746094 -3.554688 C 1.859375 -2.660156 0.339844 -2.566406 0.339844 -1.167969 C 0.339844 -0.433594 1.03125 0.136719 1.96875 0.136719 Z M 2.875 -0.636719 C 2.496094 -0.636719 2.226562 -1.03125 2.226562 -1.453125 C 2.226562 -2.414062 2.808594 -2.890625 3.746094 -3.433594 L 3.746094 -1.070312 C 3.515625 -0.785156 3.242188 -0.636719 2.875 -0.636719 Z M 2.875 -0.636719 "/></g></g></g><g fill="rgb(12.939453%, 37.249756%, 53.329468%)" fill-opacity="1"><g transform="translate(106.685633, 24.669624)"><g><path d="M 3.082031 -5.402344 L 3.082031 -5.535156 L 2.566406 -5.535156 L 2.566406 -7.464844 L 2.429688 -7.464844 C 2.429688 -6.335938 1.777344 -5.5625 0.691406 -5.535156 L 0 -5.535156 L 0 -5.402344 L 0.582031 -5.402344 L 0.582031 -1.085938 C 0.582031 -0.40625 1.113281 0.136719 1.804688 0.136719 C 2.511719 0.136719 3.082031 -0.433594 3.082031 -1.140625 L 2.972656 -1.152344 C 2.945312 -0.761719 2.875 -0.691406 2.78125 -0.691406 C 2.605469 -0.691406 2.566406 -0.910156 2.566406 -1.152344 L 2.566406 -5.402344 Z M 3.082031 -5.402344 "/></g></g></g><g fill="rgb(12.939453%, 37.249756%, 53.329468%)" fill-opacity="1"><g transform="translate(110.104958, 24.669624)"><g><path d="M 1.738281 -6.28125 C 2.332031 -6.28125 2.808594 -6.757812 2.808594 -7.355469 C 2.808594 -7.9375 2.332031 -8.414062 1.738281 -8.414062 C 1.152344 -8.414062 0.679688 -7.9375 0.679688 -7.355469 C 0.679688 -6.757812 1.152344 -6.28125 1.738281 -6.28125 Z M 0.746094 0 L 2.726562 0 L 2.726562 -5.523438 L 0.746094 -5.535156 Z M 0.746094 0 "/></g></g></g><g fill="rgb(12.939453%, 37.249756%, 53.329468%)" fill-opacity="1"><g transform="translate(113.59213, 24.669624)"><g><path d="M 3.339844 0.136719 C 4.992188 0.136719 6.335938 -1.152344 6.335938 -2.769531 C 6.335938 -4.371094 4.992188 -5.660156 3.339844 -5.660156 C 1.683594 -5.660156 0.339844 -4.371094 0.339844 -2.769531 C 0.339844 -1.152344 1.683594 0.136719 3.339844 0.136719 Z M 3.339844 0 C 2.589844 0 2.320312 -1.195312 2.320312 -2.769531 C 2.320312 -4.34375 2.589844 -5.535156 3.339844 -5.535156 C 4.042969 -5.535156 4.355469 -4.34375 4.355469 -2.769531 C 4.355469 -1.195312 4.097656 0 3.339844 0 Z M 3.339844 0 "/></g></g></g><g fill="rgb(12.939453%, 37.249756%, 53.329468%)" fill-opacity="1"><g transform="translate(120.267955, 24.669624)"><g><path d="M 0.679688 0 L 2.660156 0 L 2.660156 -4.273438 C 2.824219 -4.503906 3.203125 -4.898438 3.3125 -4.992188 C 3.8125 -5.425781 4.316406 -5.347656 4.316406 -4.601562 L 4.316406 0 L 6.296875 0 L 6.296875 -4.558594 C 6.296875 -5.167969 5.671875 -5.753906 4.734375 -5.753906 C 3.828125 -5.753906 3.066406 -5.035156 2.660156 -4.503906 L 2.660156 -5.535156 L 0.679688 -5.535156 Z M 0.679688 0 "/></g></g></g></svg>